<svg version="1.0" xmlns="http://www.w3.org/2000/svg"
     width="40pt" height="50pt" viewBox="0 0 99 125"
     preserveAspectRatio="xMidYMid meet">

    <g transform="translate(0.000000,125.000000) scale(0.100000,-0.100000)"
       fill="#000000" stroke="none">
        <path fill="#f05a55" d="M340 1174 c-30 -19 -108 -62 -173 -95 -65 -33 -116 -63 -113 -66 2
-3 65 -24 138 -47 125 -40 133 -44 136 -70 3 -21 7 -26 20 -21 9 4 44 8 77 10
l60 4 -53 -8 c-89 -15 -136 -62 -147 -151 -4 -25 -13 -65 -21 -89 -14 -45 -19
-101 -9 -101 13 0 62 30 99 59 21 17 42 31 47 31 17 0 -3 -28 -27 -39 -14 -6
-23 -15 -20 -19 7 -11 -120 -52 -160 -52 -45 0 -93 19 -105 41 -13 26 -49 25
-49 -1 0 -29 72 -77 137 -91 104 -21 226 13 284 78 24 28 33 32 44 23 8 -7 15
-18 15 -24 0 -6 -5 -4 -10 4 -8 12 -13 11 -34 -9 -13 -12 -27 -33 -30 -46 -7
-27 -31 -38 -54 -26 -9 5 -26 5 -37 1 l-20 -8 20 -7 c11 -4 34 -14 51 -22 27
-14 36 -14 80 -1 27 9 68 21 91 28 23 7 54 26 69 41 23 24 26 34 21 66 l-6 38
20 -25 c11 -14 35 -52 54 -86 47 -83 68 -100 103 -88 52 18 123 186 123 290 0
85 -20 107 -97 109 -32 0 -81 7 -107 15 -63 19 -76 10 -105 -71 l-23 -64 5 48
c3 26 13 61 21 77 14 27 14 30 -5 40 -15 8 -18 17 -14 39 6 30 1 33 -96 65 -9
3 -7 5 7 5 12 1 42 -6 67 -14 43 -15 47 -14 124 14 l80 30 6 -50 c4 -30 13
-52 22 -56 24 -9 25 1 4 42 -11 22 -20 48 -20 58 0 13 -16 24 -52 39 -29 12
-127 59 -217 105 -90 46 -165 83 -165 82 -1 0 -26 -16 -56 -35z m443 -451 c36
-41 28 -178 -10 -171 -24 4 -86 114 -78 138 15 48 59 64 88 33z m-413 -22 c13
-25 13 -54 0 -46 -5 3 -10 15 -10 25 0 39 -36 32 -53 -10 -4 -11 -6 -9 -6 6
-2 42 49 61 69 25z m201 -11 c21 -12 28 -80 8 -80 -6 0 -9 8 -6 19 2 10 0 26
-5 35 -8 15 -11 15 -33 0 -14 -9 -22 -20 -19 -25 3 -5 0 -9 -5 -9 -18 0 -12
29 9 50 23 23 25 23 51 10z m-224 -26 c-3 -3 -12 -4 -19 -1 -8 3 -5 6 6 6 11
1 17 -2 13 -5z"/>
        <path fill="#f05a55" d="M215 844 c-27 -7 -57 -11 -66 -9 -10 4 -20 -4 -27 -20 -16 -35 -15
-148 2 -189 17 -40 64 -86 88 -86 21 0 22 12 7 55 -10 27 -8 40 20 102 17 39
31 77 31 85 0 7 6 25 14 40 22 42 12 45 -69 22z"/>
        <path fill="#f05a55" d="M666 484 c-20 -28 -91 -63 -171 -84 -27 -7 -53 -16 -58 -20 -7 -6 9
-60 29 -94 11 -17 16 -16 110 24 65 29 119 45 157 48 59 5 65 11 44 48 -14 24
-82 104 -88 104 -2 0 -12 -12 -23 -26z"/>
        <path fill="#f05a55" d="M266 428 c-8 -13 -26 -49 -40 -80 l-26 -58 21 -11 c32 -17 169 -25
169 -9 0 7 8 2 19 -11 16 -20 21 -21 35 -10 21 18 20 38 -2 50 -13 7 -23 6
-32 -2 -10 -10 -10 -8 -1 10 6 12 11 33 11 47 0 20 -6 27 -27 32 -54 12 -61
15 -86 40 l-26 25 -15 -23z"/>
        <path fill="#f05a55" d="M605 295 c-71 -24 -137 -49 -146 -54 -11 -6 -51 -6 -110 -1 -51 5
-95 7 -97 5 -3 -2 -2 -15 2 -29 9 -38 55 -86 81 -86 15 0 32 -11 45 -30 25
-35 33 -37 59 -11 11 11 21 17 24 15 2 -2 50 1 106 8 l102 12 14 34 c12 27 19
32 35 27 17 -5 23 0 35 29 8 19 15 56 15 81 0 36 -3 45 -17 45 -10 0 -76 -20
-148 -45z"/>
        <path fill="#f05a55" d="M450 72 c-9 -11 -8 -17 6 -33 19 -21 60 -27 48 -7 -4 6 3 4 17 -5 13
-9 29 -17 36 -17 13 0 53 56 53 73 0 14 -146 3 -160 -11z"/>
    </g>
</svg>



